<?xml version="1.0" encoding="UTF-8" standalone="no"?>
<svg
   height="128"
   width="128"
   version="1.1"
   id="svg7"
   sodipodi:docname="icon.svg"
   inkscape:version="1.3.1 (9b9bdc1480, 2023-11-25, custom)"
   xmlns:inkscape="http://www.inkscape.org/namespaces/inkscape"
   xmlns:sodipodi="http://sodipodi.sourceforge.net/DTD/sodipodi-0.dtd"
   xmlns="http://www.w3.org/2000/svg"
   xmlns:svg="http://www.w3.org/2000/svg">
  <defs
     id="defs7" />
  <sodipodi:namedview
     id="namedview7"
     pagecolor="#ffffff"
     bordercolor="#000000"
     borderopacity="0.25"
     inkscape:showpageshadow="2"
     inkscape:pageopacity="0.0"
     inkscape:pagecheckerboard="0"
     inkscape:deskcolor="#d1d1d1"
     inkscape:zoom="6.984375"
     inkscape:cx="63.928412"
     inkscape:cy="64"
     inkscape:window-width="1850"
     inkscape:window-height="1136"
     inkscape:window-x="70"
     inkscape:window-y="27"
     inkscape:window-maximized="1"
     inkscape:current-layer="svg7" />
  <ellipse
     style="fill:#800080"
     id="path7"
     cx="63.3083"
     cy="80.39724"
     rx="34.882748"
     ry="35.584167" />
  <ellipse
     style="fill:#800080"
     id="path8"
     ry="25.230389"
     rx="10.134564"
     cy="14.365845"
     cx="90.164528"
     transform="rotate(14.093745)" />
  <ellipse
     style="fill:#800080"
     id="path8-3"
     ry="25.230389"
     rx="10.134564"
     cy="44.985664"
     cx="33.325741"
     transform="rotate(-12.897482)" />
  <path
     style="fill:#ffffff"
     id="path9"
     sodipodi:type="arc"
     sodipodi:cx="73.652214"
     sodipodi:cy="68.63102"
     sodipodi:rx="6.5863266"
     sodipodi:ry="7.7780952"
     sodipodi:start="0"
     sodipodi:end="5.7102609"
     sodipodi:arc-type="slice"
     d="m 80.238541,68.63102 a 6.5863266,7.7780952 0 0 1 -5.646182,7.698447 6.5863266,7.7780952 0 0 1 -7.258076,-5.500666 6.5863266,7.7780952 0 0 1 3.57412,-9.268798 6.5863266,7.7780952 0 0 1 8.278428,2.854575 l -5.534617,4.216442 z" />
  <path
     style="fill:#ffffff"
     id="path9-6"
     sodipodi:type="arc"
     sodipodi:cx="49.802525"
     sodipodi:cy="69.153259"
     sodipodi:rx="6.5863266"
     sodipodi:ry="7.7780952"
     sodipodi:start="0"
     sodipodi:end="5.7102609"
     sodipodi:arc-type="slice"
     d="m 56.388851,69.153259 a 6.5863266,7.7780952 0 0 1 -5.646182,7.698447 6.5863266,7.7780952 0 0 1 -7.258075,-5.500665 6.5863266,7.7780952 0 0 1 3.57412,-9.268798 6.5863266,7.7780952 0 0 1 8.278428,2.854575 l -5.534617,4.216441 z" />
</svg>
